<svg xmlns="http://www.w3.org/2000/svg" version="1.1" xmlns:xlink="http://www.w3.org/1999/xlink" viewBox="0 0 200 200"><rect width="200" height="200" fill="url('#gradient')"></rect><defs><linearGradient id="gradient" gradientTransform="rotate(45 0.5 0.5)"><stop offset="0%" stop-color="#ba8d66"></stop><stop offset="100%" stop-color="#984a4d"></stop></linearGradient></defs><g><g fill="#589f9c" transform="matrix(4.788776305533905,0,0,4.788776305533905,4.867794140279059,134.05245604407295)" stroke="#5bcad4" stroke-width="0.2"><path d="M8.87 0L6.36-5.02L4.50-5.02L4.50 0L1.07 0L1.07-14.22L6.67-14.22Q9.20-14.22 10.63-13.10Q12.05-11.97 12.05-9.92L12.05-9.92Q12.05-8.44 11.45-7.46Q10.85-6.48 9.57-5.88L9.57-5.88L12.54-0.15L12.54 0L8.87 0ZM4.50-11.57L4.50-7.67L6.67-7.67Q7.65-7.67 8.14-8.18Q8.63-8.69 8.63-9.61Q8.63-10.53 8.13-11.05Q7.64-11.57 6.67-11.57L6.67-11.57L4.50-11.57ZM19.89 0L14.12 0L14.12-14.22L19.23-14.22Q21.97-14.22 23.40-13.21Q24.83-12.21 24.83-10.29L24.83-10.29Q24.83-9.19 24.33-8.41Q23.82-7.63 22.83-7.26L22.83-7.26Q23.95-6.96 24.54-6.16Q25.14-5.36 25.14-4.21L25.14-4.21Q25.14-2.12 23.81-1.07Q22.49-0.02 19.89 0L19.89 0ZM19.95-6.04L17.55-6.04L17.55-2.64L19.79-2.64Q20.72-2.64 21.22-3.06Q21.72-3.49 21.72-4.26L21.72-4.26Q21.72-6.04 19.95-6.04L19.95-6.04ZM17.55-11.57L17.55-8.29L19.34-8.29Q20.46-8.30 20.94-8.70Q21.42-9.10 21.42-9.88L21.42-9.88Q21.42-10.78 20.90-11.18Q20.38-11.57 19.23-11.57L19.23-11.57L17.55-11.57ZM38.66-7.60L38.66-1.76Q37.87-0.88 36.35-0.34Q34.82 0.20 33.01 0.20L33.01 0.20Q30.21 0.20 28.54-1.51Q26.88-3.22 26.76-6.27L26.76-6.27L26.75-7.50Q26.75-9.60 27.49-11.17Q28.23-12.73 29.61-13.58Q31.00-14.42 32.81-14.42L32.81-14.42Q35.47-14.42 36.94-13.21Q38.41-11.99 38.65-9.58L38.65-9.58L35.35-9.58Q35.18-10.77 34.59-11.28Q34.00-11.79 32.93-11.79L32.93-11.79Q31.64-11.79 30.94-10.69Q30.23-9.60 30.22-7.57L30.22-7.57L30.22-6.71Q30.22-4.58 30.95-3.51Q31.68-2.44 33.24-2.44L33.24-2.44Q34.58-2.44 35.23-3.04L35.23-3.04L35.23-5.24L32.85-5.24L32.85-7.60L38.66-7.60Z"></path></g></g></svg>